<?xml version="1.0" encoding="utf-8"?>
<!-- Generator: Adobe Illustrator 18.1.1, SVG Export Plug-In . SVG Version: 6.00 Build 0)  -->
<svg version="1.1" id="Capa_1" xmlns="http://www.w3.org/2000/svg" xmlns:xlink="http://www.w3.org/1999/xlink" x="0px" y="0px"
	 viewBox="0 0 1400 980" enable-background="new 0 0 1400 980" xml:space="preserve">
<path fill="#151D38" d="M251.5,756.6c1.3-0.6,2.7-0.7,4.2-0.7c12.5,0,25,0,37.4,0c0.6,0,1.3,0,1.9,0c0.8,0,1.1-0.4,1.2-1.2
	c0.1-1.8,0.3-3.5,0.8-5.2c3-11.9,10.4-19.7,22-23.6c1.9-0.6,2.1-0.2,1.4-2.6c-0.9-3.2-1.8-6.5-2.7-9.7c-0.6-2.2-0.6-2.2-2.5-1.2
	c-2.8,1.4-5.7,2.5-8.8,3c-5.4,1-10.3,0.1-14.9-2.9c-3.4-2.2-6.1-5.1-8.5-8.4c-0.5-0.7-0.8-1.3,0.3-1.9c4.5-2.4,9.1-4.2,14.3-4.3
	c4.3-0.1,8.2,1.3,11.7,3.7c2.1,1.5,4,3.2,5.7,5.1c0.2,0.2,0.4,0.5,0.8,0.5c0-0.3,0.1-0.6,0-0.9c-1.1-4-2.2-8-3.3-12
	c-0.8-2.8-1.6-5.5-2.3-8.3c-0.2-0.9-0.7-1.3-1.7-1.6c-12-3-24-6.2-36-9.3c-0.5-0.1-1.1-0.2-1.6-0.6c-0.5-0.4-0.7-0.9-0.5-1.5
	c0.2-0.6,0.6-0.9,1.2-1c0.8-0.1,1.6,0.2,2.4,0.4c10.7,2.8,21.5,5.6,32.2,8.4c2.6,0.7,2.6,0.7,1.9-1.8c-3.3-11.7-6.5-23.4-9.8-35.1
	c-0.2-0.6-0.4-1.2-0.5-1.9c-0.2-0.8,0.1-1.4,0.9-1.7c0.9-0.3,1.6,0,1.9,0.9c0.2,0.4,0.3,0.9,0.4,1.4c1.7,6.2,3.4,12.3,5.2,18.5
	c0.2,0.7,0.4,1.4,0.6,2.1c0,0.1,0.2,0.3,0.3,0.3c0.3,0.1,0.4-0.2,0.4-0.4c0.1-0.6,0.1-1.3,0.3-1.9c1.7-10.1,7.9-15.9,17.6-18.3
	c1.5-0.4,3.1-0.6,4.7-0.9c0.8-0.1,1.2,0.2,1.3,1c0.1,5.2-0.6,10.2-3,14.9c-2.1,4.1-5.4,6.8-9.5,8.8c-2.7,1.3-5.5,2-8.5,2.5
	c-1.7,0.3-1.8,0.3-1.3,2.1c2.3,8.3,4.6,16.6,6.9,24.9c2.5,8.9,5,17.7,7.4,26.5c0.5,1.9,0.6,1.9,2.5,1.8c11.7-0.5,21.2,3.8,28.3,13.2
	c0.2,0.3,0.4,0.5,0.6,0.8c0.3,0.3,0.4,1,1,0.8c0.5-0.2,0.2-0.8,0.3-1.3c1.4-18.1,14.1-33.4,31.7-38c1.8-0.5,2.8-1.3,3.6-3
	c10-21.4,20.1-42.8,30.2-64.2c0.6-1.3,0.9-2.5,0.9-3.9c-0.1-3.4,0-6.7,0-10.1c0-1.9,0-1.9-1.9-2.3c-5.5-1-11-2-16.5-3
	c-5.3-1-10.5-1.9-15.8-2.9c-0.2,0-0.3,0-0.5-0.1c-0.9-0.1-1.6-0.5-1.6-1.5c-0.1-1.1,0.8-1.5,1.7-1.7c2-0.4,3.9-0.7,5.9-1.1
	c9-1.6,18.1-3.3,27.1-4.9c1.5-0.3,1.9-0.9,2.1-2.3c1.7-9.6,8.4-16.8,17.8-18.5c15.6-2.9,26.4,9.1,26.8,21.2c0,0.8,0,1.6,0,2.4
	c0,38.7,0,77.4,0,116.2c0,0.6,0,1.1,0,1.7c0,2.4,0,2.4,2.3,2.4c16,0.2,29.4,12.4,31.3,28.3c0.4,3.5-0.3,3.1,3.5,3.1
	c7.8,0,15.5,0,23.3,0c0.5,0,1,0,1.4,0c1.9-0.1,1.9-0.1,1.9-1.9c0-3.7,0-7.4,0-11c0-4.2,0-8.3,0-12.5c0-2.4,0-2.4-2.5-2.4
	c-4,0-8,0-12,0c-14.9,0-26.6-9.6-29.4-24.2c-0.4-2-0.5-4-0.5-6c0-50.5,0-101,0-151.4c0-7.7,2.1-14.7,7.3-20.5
	c6.1-6.8,13.8-10,22.9-9.5c13.9,0.8,24.3,10.5,26.6,24.6c0.3,2,0.3,2,2.4,2.4c14.1,2.6,28.1,5.1,42.2,7.7c0.1,0,0.2,0,0.2,0
	c1,0.2,2.2,0.4,2.2,1.8c0,1.2-1.1,1.4-2.1,1.6c-7.9,1.4-15.7,2.9-23.6,4.3c-6.4,1.2-12.7,2.3-19.1,3.4c-1.9,0.3-1.9,0.4-1.9,2.3
	c0,4.9,0,9.8,0,14.6c0,1.3,0.3,2.5,0.9,3.7c15.5,33,31,66,46.5,98.9c6.7,14.2,13.4,28.5,20.1,42.7c0.2,0.4,0.4,0.9,0.6,1.3
	c0.4,1.3,0,2-1.4,2.2c-0.7,0.1-1.4,0-2.2,0c-16.6,0-33.3,0-49.9,0c-0.6,0-1.1,0-1.7,0c-2.1,0-2.1,0-2.1,2.2c0,7.8,0,15.7,0,23.5
	c0,2.1,0,2.1,2.1,2.1c17.8,0,35.7,0,53.5,0c1.6,0,2.4-0.8,3.3-1.9c14.3-19.2,28.6-38.4,42.9-57.5c3.3-4.5,6.7-9,10-13.5
	c1.1-1.5,1.6-1.6-0.7-2.3c-4.9-1.5-9.5-3.8-13.4-7.3c-5.2-4.6-7.4-10.7-8-17.4c-0.3-3.4,0-6.7,0.6-10c0.2-1.1,0.6-1.5,1.8-1.2
	c6.1,1.7,11.7,4.3,16.2,8.9c4.3,4.3,6.3,9.7,6.7,15.7c0.2,2.4,0,4.8,0,7.2c0,0.4-0.3,1.1,0.3,1.2c0.5,0.1,0.7-0.5,1-0.9
	c5.3-7.1,10.6-14.2,15.9-21.3c2-2.7,4-5.4,6-8.1c0.2-0.3,0.5-0.6,0.7-0.9c0.6-0.7,1.4-0.8,2.1-0.3c0.8,0.6,0.7,1.4,0.2,2.2
	c-0.3,0.5-0.7,0.9-1,1.4c-11.4,15.3-22.8,30.5-34.1,45.8c-0.3,0.4-0.7,0.9-1,1.3c-0.3,0.5-1,0.9-0.8,1.4c0.3,0.7,1.1,0.5,1.7,0.5
	c9.7,0.4,19.3,0.7,29,1.1c8.7,0.4,17.4,0.7,26.1,1.1c1.9,0.1,2.5,0.5,2.5,1.5c0,1.1-0.7,1.5-2.5,1.5c-9-0.4-18-0.7-27.1-1.1
	c-7.3-0.3-14.5-0.6-21.8-0.9c-3-0.1-6.1-0.2-9.1-0.4c-1.2-0.1-1.9,0.3-2.6,1.2c-2.2,3-4.5,6-6.7,9.1c-0.3,0.4-0.9,0.8-0.6,1.2
	c0.3,0.4,0.8,0,1.3-0.2c3.2-1.1,6.5-1.7,9.9-1.4c6.8,0.6,12.3,3.8,16.8,8.8c5.3,5.9,8.3,12.8,9.2,20.7c0.5,4.4,0.8,8.7,1.8,13.1
	c0.3,1.3,0.8,1.8,2,1.7c0.6-0.1,1.1,0,1.7,0c60.9,0,121.8,0,182.6,0c1,0,2.3,0.4,3-0.3c0.7-0.7-0.1-1.8-0.1-2.7
	c0-7.2-0.1-14.4,0.1-21.6c0.3-9.1,8.2-16.5,17.3-16.6c2.9,0,5.6,0.4,8.1,1.7c0.9,0.4,1.6,0.4,2.5,0c5.2-2.3,10.4-2.3,15.5,0
	c0.7,0.3,1.3,0.5,2,0.1c3.1-1.7,6.5-1.9,10-1.8c1.8,0.1,3.7,0,5.5,0c1,0,1.5-0.4,1.4-1.4c0-0.5,0-1,0-1.4c0-18.8,0-37.6,0-56.4
	c0-0.4,0-0.8,0-1.2c-0.1-1.5-0.1-1.6-1.4-0.8c-6.4,4.1-13.2,7.2-20.7,8.7c-25.5,5.2-47.4-1.3-65-20.7c-15.7-17.3-31-34.9-46.5-52.4
	c-1.2-1.4-2.3-1.7-4.1-1.2c-25.5,7.6-51,15-76.6,22.5c-3.3,1-2.7,1.4-3.8-2.1c-1.5-5.1-3-10.1-4.5-15.2c-0.5-1.7-0.6-1.7-1.8-0.4
	c-7.2,7.8-16.1,11.7-26.6,11.6c-17.6-0.2-32.5-14.1-33.9-31.7c-1.4-18.2,10.6-33.9,28.5-37.3c2.8-0.5,5.6-0.7,8.4-0.5
	c0.3,0,0.7,0.2,0.8-0.2c0.2-0.4-0.2-0.6-0.4-0.8c-1.3-1.3-2.7-2.5-3.9-3.9c-5-5.2-4.4-13,1.4-17.2c1.1-0.8,1.3-1.4,0.9-2.7
	c-1.6-4.8-0.1-9.7,3.8-12.7c3.7-2.8,8.9-3,13-0.4c0.3,0.2,0.5,0.4,0.8,0.5c0.2,0.1,0.4,0.2,0.6,0.2c0-0.2,0.1-0.5,0-0.7
	c-0.4-1.6-1-3.2-1.4-4.8c-1.7-6.4-0.4-12.3,3.7-17.4c8.9-11,26.5-8.5,32.1,4.4c0.6,1.5,1.1,3,1.5,4.6c0.3,1,0.7,1.5,1.9,1.1
	c1.3-0.4,2.7-1.5,3.8-0.7c1,0.7,0.9,2.3,1.3,3.5c1,3.1,1.9,6.3,2.7,9.4c0.3,1.2,0.8,1.6,2,1.2c1.4-0.5,2.7-0.9,4.1-1.2
	c1.3-0.3,1.5-0.9,1.1-2.1c-1-3.4-2-6.7-3-10.1c-0.2-0.5-0.3-1.1-0.5-1.6c-0.5-1.7-0.5-1.7,1.4-2.3c16.8-4.9,33.6-9.9,50.4-14.8
	c1.7-0.5,1.7-0.5,2.3,1.3c1.1,3.8,2.2,7.7,3.4,11.5c0.5,1.7,0.5,1.7,2.3,1.2c9-2.6,17.9-5.2,26.9-7.9c0.2-0.1,0.5-0.2,0.7-0.2
	c2.2-0.6,2.2-0.6,2.9,1.6c8.8,29.9,17.6,59.8,26.3,89.7c0,0.2,0.1,0.3,0.1,0.5c0.6,2.2,0.6,2.2-1.5,2.8c-6.5,1.9-13,3.8-19.5,5.7
	c-2.8,0.8-2.1,0.9-0.7,2.4c10.8,12.2,21.6,24.5,32.5,36.6c8.8,9.8,22.6,10.3,32.2,1.2c6.8-6.3,13.5-12.7,20.3-19
	c1.8-1.7,1.8-1.7,0.6-3.8c-6.8-11.7-13.9-23.2-21-34.7c-15.3-24.8-30.7-49.5-45.3-74.6c-9.8-16.8-19.3-33.7-27.5-51.3
	c-3.8-8.2-7.4-16.5-9.7-25.3c-2.3-9.1-2.7-18.3-1.9-27.6c0.6-7.4,2.1-14.7,4.5-21.8c0.1-0.3,0.2-0.6,0.3-0.9
	c0.1-0.6-0.2-0.7-0.7-0.6c-0.5,0.1-0.9,0.3-1.4,0.4c-4.7,1.5-9.3,2.9-14,4.3c-0.9,0.3-2.1,1-2.8-0.2c-0.7-1.1,0.1-1.9,0.7-2.8
	c5.3-7.6,10.6-15.2,15.9-22.8c0.2-0.3,0.4-0.5,0.5-0.8c1.2-1.7,1.2-1.7-0.9-2.1c-8.6-1.6-17.3-3.2-25.9-4.8c-0.5-0.1-1-0.2-1.4-0.4
	c-1-0.5-1.3-1.2-0.7-2.1c0.4-0.6,0.9-1.1,1.4-1.6c5.8-5.9,11.6-11.7,17.4-17.5c0.3-0.3,0.7-0.7,1-1c0.5-0.5,0.2-0.9-0.3-1.1
	c-1.9-0.7-3.7-1.4-5.6-2.1c-7.5-2.9-15.1-5.7-22.6-8.6c-1-0.4-2.4-0.5-2.3-2c0-1.5,1.4-1.5,2.4-1.9c34.9-11.1,69.9-22.1,104.9-33.2
	c20.9-6.6,41.9-13.2,62.8-19.9c4.5-1.4,9.1-2.4,13.8-2.7c0.5,0,1,0,1.3-0.4c3.5,0,7,0,10.6,0c0.5,0.6,1.2,0.4,1.8,0.4
	c9.9,1,18.7,4.5,26.3,11.1c6,5.2,10.3,11.6,13.3,18.8c0.6,1.4,1.3,1.9,2.8,1.9c3.9-0.1,7.7,0.5,11.4,1.4
	c12.5,3.2,21.9,10.2,27.4,22.1c4.4,9.5,4.8,19.6,3.7,29.8c-1,9-3.4,17.7-6.5,26.2c-0.2,0.6-0.4,1.2-0.6,1.8c-0.2,0.5,0,0.8,0.5,0.7
	c0.6-0.1,1.1-0.1,1.7-0.3c3.3-0.7,6.7-0.7,10-0.2c22.3,3.3,33.3,29.4,20.1,47.5c-6.8,9.3-16.2,13.4-27.7,12.5c-2-0.2-2-0.2-2.1,1.8
	c-0.1,4.2-0.2,8.3-0.2,12.5c-0.1,5.8-0.2,11.7-0.3,17.5c-0.2,10.1-0.5,20.3-0.8,30.4c-0.1,5.6-0.2,11.2-0.3,16.8
	c-0.3,13.5-0.6,27-0.9,40.5c-0.1,5.9-0.2,11.8-0.3,17.7c-0.2,9.8-0.5,19.7-0.8,29.5c-0.2,6.4-0.3,12.8-0.5,19.2c0,1.1,0.2,2.1,0.5,3
	c8.7,25,17.4,49.9,26.1,74.9c4.8,13.7,9.6,27.3,14.2,41c5.8,17.5-1.9,36.6-18,45.4c-0.7,0.4-1.6,0.7-2.2,1.3
	c0.8,0.7,1.8,0.3,2.7,0.3c15.4,0,30.7,0,46.1,0c1.2,0,2.4-0.1,3.4,0.7c0,0.5,0,1,0,1.4c-0.8,1.3-2.1,0.9-3.3,0.9
	c-68.6,0-137.3,0-205.9,0c-1.6,0-2.8,0.3-4.1,1.4c-3.8,3.2-9.3,3.1-13.2-0.1c-2.2-1.8-2.2-1.8-4.4,0c-4,3.3-9.5,3.3-13.5,0
	c-2.2-1.8-2.2-1.8-4.4-0.1c-3.8,3.1-9.4,3.4-13.1,0.3c-1.5-1.2-2.9-1.6-4.7-1.6c-61.4,0-122.9,0-184.3,0c-0.5,0-1,0-1.4,0
	c-1.8,0-1.9,0.1-1.3,1.9c0.5,1.8,1.1,3.7,1.6,5.5c0.6,2.3-0.2,3.1-2.4,2.4c-8.4-2.6-17.1-4-25.9-4.6c-4.8-0.4-9.5-1.6-13.7-4.1
	c-1.4-0.9-2.9-1.2-4.5-1.2c-36,0-72,0-108,0c-36.2,0-72.3,0-108.5,0c-2.5,0-2.4-0.2-3,2.1c-0.5,1.9-1.4,3.5-2.5,5.2
	c-2.8,4.2-6.7,7-11.1,9.3c-4.9,2.5-10.2,3.2-15.6,3.1c-6.3-0.1-12.6,0.3-18.8,1.5c-0.9,0.2-1.9,0.2-2.6,0.9c-0.2,0-0.3,0-0.5,0
	c-1.4-1-1.4-2.2-0.7-3.7c2.1-4.8,3.8-9.8,4.9-15c0.7-3.4,0.7-3.4-2.8-3.4c-39.9,0-79.8,0-119.7,0c-1.3,0-2.6,0-3.6-0.9
	C251.5,757.6,251.5,757.1,251.5,756.6z"/>
<path fill="#FCE2D8" d="M1004.6,608.7c7.5-0.1,15.3-0.8,23-2.4c13.3-2.7,25.7-7.5,37.3-14.5c1.2-0.7,1.6-1.5,1.6-2.9
	c0-3.9,0.2-7.8,0.3-11.7c0.3-14,0.6-28,1-42c0.3-14.1,0.6-28.1,1-42.2c0.3-14.1,0.7-28.1,1-42.2c0.3-13.1,0.5-26.2,0.8-39.3
	c0.1-3,0.1-6.1,0.2-9.1c0.1-1.7,0.6-2.1,2.2-2c0.3,0,0.6,0.1,0.9,0.2c19.3,3.3,33.9-13,32-29.7c-2.2-19.4-23.2-30.4-40.3-21
	c-0.4,0.2-0.8,0.5-1.2,0.7c-0.9,0.4-1.8,0.5-2.3-0.5c-0.5-1,0-1.7,0.8-2.2c0.6-0.4,1.3-0.7,1.9-1.1c0.3-0.2,0.7-0.4,0.7-0.6
	c0-0.4-0.6-0.5-0.9-0.5c-4.3-1.2-8.5-2.7-12.6-4.5c-9.4-4.1-17.9-9.6-25.1-17c-6.8-6.9-11.7-14.9-14.9-24.1c-0.7-2-0.4-1.7-2.3-1.2
	c-0.3,0.1-0.6,0.2-0.9,0.3c-21.1,6.6-42.2,13.2-63.3,19.8c-34,10.6-68,21.3-102,31.9c-1.4,0.4-2.3,1-2.8,2.5
	c-6.9,19.6-7.8,39.2-0.5,58.9c4.4,11.9,10,23.2,15.9,34.3c11.9,22.6,25,44.4,38.3,66.2c15.4,25.3,31.4,50.4,46.4,75.9
	c0.7,1.1,1.6,1.7,2.6,2.4C962.1,602.9,982.5,608.4,1004.6,608.7z"/>
<path fill="#EFD2E6" d="M941.9,654.4c0,19,0,38.1,0,57.1c0,0.7,0,1.4,0,2.2c0,0.8,0.4,1.2,1.2,1.1c0.4,0,0.8,0,1.2,0
	c35,0,69.9,0,104.9,0c1.1,0,2.2-0.1,3.3-0.3c3.6-0.9,5.9-3.8,5.9-7.5c0-1.4-0.4-2.7-0.8-4c-4.3-13-8.6-25.9-12.9-38.9
	c-0.5-1.6-0.3-2.3,0.7-2.6c1-0.3,1.6,0.1,2.2,1.6c0.1,0.4,0.2,0.8,0.4,1.1c1.8,5.5,3.6,10.9,5.4,16.4c2.5,7.6,5.1,15.1,7.5,22.7
	c2.1,6.6-1.7,13-8.3,14.2c-1.2,0.2-2.5,0.2-3.8,0.2c-25,0-50.1,0-75.1,0c-0.6,0-1.3,0.1-1.9,0c-1.2-0.1-1.6,0.5-1.5,1.5
	c0,0.5,0,1,0,1.4c0,10.8,0,21.6,0,32.4c0,3.1-0.2,2.8,2.9,2.8c33.6,0,67.2,0,100.8,0c9.5,0,17.8-3.3,24.4-10
	c10.7-10.9,13.5-23.7,8.4-38.2c-11.8-34-23.7-68-35.5-102.1c-1.2-3.4-2.4-6.8-3.6-10.2c-0.5-1.4-0.5-1.4-1.9-0.6
	c-0.1,0.1-0.3,0.2-0.4,0.2c-14.5,8.6-30.1,13.9-46.9,15.7c-1.8,0.2-2.8,0.9-3.5,2.6c-5.5,12.1-11,24.1-16.6,36.2
	c-0.2,0.4-0.4,0.9-0.6,1.3c-0.4,0.8-1,1.3-1.9,1.1c-0.9-0.2-1-0.9-1-1.7c0-0.6,0-1.1,0-1.7c0-11.4,0-22.9,0-34.3c0-0.6,0-1.1,0-1.7
	c0.1-1-0.5-1.4-1.4-1.4c-1.2,0-2.4-0.2-3.6-0.4c-16.2-1.9-31.3-7-45.4-15c-0.7-0.4-1.5-1.5-2.2-0.9c-0.7,0.5-0.3,1.6-0.3,2.5
	C941.9,616.3,941.9,635.3,941.9,654.4z"/>
<path fill="#FFFFFF" d="M490,622.1c0,13.1,0,26.2,0,39.4c0,12.3,0.1,24.6,0,37c-0.1,15.9,13.1,26.9,26.8,26.7
	c22.6-0.3,45.3-0.1,67.9-0.1c0.3,0,0.6,0,1,0c0.6-0.1,1.4,0.3,1.6-0.3c0.1-0.4-0.9-0.5-1.3-0.7c-0.7-0.3-1.5-0.6-2.2-0.8
	c-14.8-5.7-26.7-15.3-36-28.1c-15.9-21.9-22.4-46.5-20.3-73.5c1.1-14.1,5.2-27.3,12.8-39.3c0.6-0.9,0.8-1.9,0.8-2.9
	c0-11.2,0-22.4,0-33.6c0-3.6-0.6-7.2-2-10.5c-7.4-18-31.2-21.5-43.2-6.4c-4.1,5.2-5.8,11.1-5.8,17.6C490,571.7,490,596.9,490,622.1z
	"/>
<path fill="#EFD2E6" d="M938.9,623.4c0-1.8,0-3.5,0-5.3c0-6.5,0-13,0-19.4c0-0.4,0.2-1.1-0.4-1.2c-0.3-0.1-0.7,0.3-1,0.6
	c-0.3,0.2-0.6,0.6-0.9,0.8c-6,5.6-12,11.3-18,16.9c-4.6,4.3-10.1,6.6-16.5,6.7c-7.9,0.1-14.5-2.8-19.7-8.7
	c-11.1-12.5-22.2-25-33.2-37.5c-1.2-1.3-2.1-1.7-3.9-1.2c-11.8,3.6-23.7,7-35.6,10.5c-2.9,0.9-2.9,0.9-1,3.1
	c14.8,16.7,29.7,33.5,44.5,50.3c11.3,12.8,25.3,20.2,42.4,21.8c15.1,1.4,29-2.3,41.6-10.7c1.2-0.8,1.6-1.7,1.6-3.1
	C938.9,639,938.9,631.2,938.9,623.4z"/>
<path fill="#FFFFFF" d="M464.6,662.5c0-19.6,0-39.2,0-58.8c0-1.7-0.1-3.4-0.5-5c-1.9-7.4-6.3-12.6-13.7-14.7
	c-7.4-2.1-13.9-0.3-19.3,5.2c-4.2,4.3-5.6,9.5-5.6,15.3c0,8.2,0,16.3,0,24.5c0,1.2,0.3,2.2,0.9,3.1c1.4,2.1,2.6,4.4,3.7,6.7
	c5,10.9,6.8,22.4,6.3,34.3c-0.5,11.9-3.3,23.2-8.4,34c-0.9,1.9-0.9,1.9,0.6,3.4c6.3,6.2,10.4,13.5,12.1,22.2c0.4,2,0.6,3.9,0.8,5.9
	c0,0.2,0.1,0.5,0.3,0.6c0.2,0.2,0.4-0.1,0.6-0.3c0.3-0.4,0.5-0.8,0.8-1.2c3.1-4.3,7-7.6,11.8-10c2.6-1.3,5.3-2.3,8.1-2.8
	c1.2-0.2,1.6-0.7,1.5-1.9c-0.1-0.6,0-1.1,0-1.7C464.6,701.9,464.6,682.2,464.6,662.5z"/>
<path fill="#EDC062" d="M529.9,630.5c0.2,16.1,3.4,30.9,9.8,45c6.5,14.3,15.7,26.5,28.5,35.8c11,8,23.3,12.5,36.8,13.6
	c3.4,0.3,3.7,0.8,2-2.8c-21-44.6-42-89.2-63-133.8c-0.5-1.1-0.8-2.9-1.7-2.9c-1.2,0-1.5,1.8-2.1,2.9
	C532.9,601.5,530,616,529.9,630.5z"/>
<path fill="#CED8DC" d="M847.7,570.5c-0.1-0.3-0.1-0.6-0.2-0.9c-2.1-7.2-4.2-14.4-6.4-21.6c-0.6-1.9-0.6-1.9-2.5-1.3
	c-18.2,5.3-36.3,10.7-54.5,16c-1,0.3-1.7,0.8-2.3,1.5c-3.2,3.9-7.3,6.3-12.2,7.7c-16.3,4.7-32.5,9.5-48.7,14.3
	c-2.6,0.8-3,1.4-2.2,3.9c1.4,4.9,2.8,9.8,4.3,14.7c0.9,3.1,0.4,2.9,3.7,2c38.7-11.3,77.4-22.7,116.1-34.1c1.4-0.4,2.7-0.8,4.1-1.2
	C847.4,571.3,847.8,571.1,847.7,570.5z"/>
<path fill="#CED8DC" d="M770.7,524.7c0.4-0.1,0.8-0.3,1.2-0.4c18.5-5.4,37.1-10.9,55.6-16.3c1.7-0.5,1.7-0.6,1.2-2.3
	c-2.1-7.1-4.2-14.3-6.3-21.4c-0.6-1.9-0.6-2-2.6-1.4c-32,9.4-64,18.8-96,28.2c-2,0.6-2,0.6-1.2,2.6c3.1,7.3-1.7,15.3-9.6,15.8
	c-1.3,0.1-1.8,0.5-2.2,1.7c-1,2.8-3,4.7-5.6,6c-0.5,0.3-1.5,0.2-1.3,1c0.1,0.6,1,0.8,1.6,1c0.8,0.3,1.6-0.1,2.3-0.3
	c15.9-4.7,31.7-9.3,47.6-14c4.7-1.4,9.4-1.7,14.2-0.4C770,524.5,770.3,524.6,770.7,524.7z"/>
<path fill="#FCE2D8" d="M947.3,717.7c-5.8,0-11.7,0-17.5,0c-0.1,0-0.2,0-0.2,0c-7.7,0.1-14.2,6.6-14.3,14.3c-0.1,6.8,0,13.6,0,20.4
	c0,3.2,1.6,5.5,4.6,6.7c2.8,1.1,5.5,0.7,7.8-1.4c1.7-1.5,2.4-3.5,2.4-5.8c0-5.9,0-11.8,0-17.7c0-0.7,0-1.4,0.2-2.1
	c0.1-0.7,0.7-1.1,1.4-1.1c0.7,0,1.2,0.4,1.4,1.1c0.1,0.5,0.1,1.1,0.1,1.7c0,2.6,0,5.1,0.1,7.7c0.4,7.9,6.9,14.3,14.8,14.5
	c5.8,0.2,11.7,0,17.5,0c1.8,0,1.8-0.1,1.8-1.9c0-11.4,0-22.9,0-34.3c0-1.9,0-2-2-2C959.3,717.7,953.3,717.7,947.3,717.7z"/>
<path fill="#151D38" d="M839.5,542.4c-0.1-0.3-0.2-0.6-0.3-1c-2.8-9.7-5.6-19.3-8.5-29c-0.6-1.9-0.6-1.9-2.7-1.3
	c-16.8,4.9-33.6,9.8-50.3,14.8c-0.5,0.2-1.1,0.3-1.6,0.5c-0.3,0.1-0.4,0.5-0.1,0.7c0.3,0.3,0.6,0.5,1,0.7c9.7,7,13.1,18.1,9.1,29.3
	c-0.2,0.5-0.6,1.3-0.4,1.5c0.5,0.6,1.2,0,1.8-0.1c0.2-0.1,0.5-0.1,0.7-0.2c12.7-3.7,25.4-7.5,38.2-11.2c4-1.2,8-2.4,11.9-3.5
	C838.7,543.4,839.4,543.4,839.5,542.4z"/>
<path fill="#CED8DC" d="M763.7,554.4c0-1.7-0.2-3.3-0.6-5c-2.4-10.3-12-17.3-22.6-16.5c-3,0.2-5.8,1.3-8.6,2.1
	c-6.8,1.9-13.5,4-20.2,5.9c-0.7,0.2-1.7,0.1-1.9,0.8c-0.2,0.7,0.8,1,1.3,1.5c1.8,1.7,3.6,3.4,5.1,5.4c7.3,9.9,9,20.8,5.3,32.5
	c-0.2,0.5-0.6,1.1-0.3,1.5c0.4,0.5,1,0,1.5-0.2c8.7-2.5,17.3-5,26-7.6C757.7,572,763.7,563.7,763.7,554.4z"/>
<path fill="#A5D0B7" d="M658.2,714.6c-4.4,0-8.3,1.2-11.8,3.5c-2.7,1.7-2.7,1.7-0.1,3.7c7.9,6.3,15.1,13.3,21.3,21.3
	c0.4,0.6,0.9,1.1,1.2,1.8c0.4,0.7,0.4,1.4-0.3,1.9c-0.8,0.6-1.5,0.4-2.1-0.3c-0.4-0.4-0.7-0.9-1-1.3c-6.4-8.4-13.9-15.6-22.2-22.1
	c-1.5-1.1-1.5-1.1-2.6,0.3c-5.9,7.1-6.5,16.7-1.3,24.3c5.2,7.5,12.4,11.9,21.4,13.1c8.4,1.1,16.9,1.6,25,4.1
	c1.3,0.4,1.1-0.3,0.8-1.1c-2.2-7.3-3.4-14.8-4.1-22.4c-0.7-7.2-3.5-13.6-8.4-18.9C669.6,717.7,664.4,714.8,658.2,714.6z"/>
<path fill="#EA6AA2" d="M433.5,670c0.1-6-0.6-12-2.1-17.8c-1.4-5.8-3.5-11.3-6.5-16.4c-0.6-1.1-0.8-1.1-1.3,0
	c-0.2,0.4-0.4,0.7-0.5,1.1c-9.3,19.9-18.7,39.8-28,59.7c-0.2,0.5-0.5,1-0.7,1.5c-0.2,0.5,0,0.8,0.5,0.8c0.3,0,0.6-0.1,1-0.1
	c9.8-0.5,18.9,1.8,27,7.3c0.4,0.3,0.8,0.5,1.2,0.8c0.4,0.3,0.7,0.2,0.9-0.2c0.2-0.4,0.4-0.9,0.6-1.3
	C430.8,694.1,433.4,682.3,433.5,670z"/>
<path fill="#CED8DC" d="M657,569.7c-0.1,16.2,12.7,31.7,31.7,31.7c19,0,31.7-15.5,31.7-31.7c0-17.5-14.2-31.7-31.8-31.7
	C671.1,538,657,552.2,657,569.7z"/>
<path fill="#95B892" d="M422.4,755.1c0-3.6-1.1-7.3-3-10.2c-0.9-1.4-0.9-1.4-2.4-0.4c-7.7,5-14.8,10.6-20.9,17.4
	c-0.3,0.4-0.6,0.7-1,1c-0.6,0.5-1.3,0.5-2,0c-0.6-0.5-0.7-1.3-0.2-1.9c0.6-0.8,1.3-1.6,2-2.4c5.5-5.9,11.8-11,18.5-15.5
	c0.7-0.4,1.3-0.9,2-1.3c0.8-0.5,0.6-1,0-1.5c-0.4-0.3-0.7-0.6-1.1-0.9c-6.4-5-14.7-5.1-21.5-0.1c-5.5,4.1-9.3,9.4-10.8,16.2
	c-1.5,6.9-2.8,13.8-5.5,20.3c-0.5,1.2,0.2,1.1,1,1c3.2-0.4,6.3-1,9.5-1.1c4.1-0.2,8.1,0,12.2-0.3c6.8-0.5,12.7-3.1,17.6-7.8
	C420.4,764.2,422.4,760.1,422.4,755.1z"/>
<path fill="#151D38" d="M870.8,563.6c-0.1-0.4-0.3-1-0.5-1.6c-8.1-27.7-16.2-55.3-24.3-83c-0.2-0.6-0.4-1.2-0.5-1.8
	c-0.2-1.2-0.7-1.6-2-1.1c-1.4,0.5-2.9,0.8-4.4,1.3c-3.3,1-2.9,0.6-1.9,3.7c8.1,27.8,16.3,55.6,24.5,83.4c0.2,0.5,0.3,1.1,0.5,1.6
	c0.2,0.5,0.5,0.8,1.1,0.6c2.3-0.7,4.6-1.3,6.9-2C870.5,564.5,870.8,564.4,870.8,563.6z"/>
<path fill="#CED8DC" d="M859.1,566.6c0-0.1-0.2-0.6-0.3-1c-6.5-22.2-13-44.5-19.5-66.7c-1.8-6.1-3.6-12.3-5.4-18.4
	c-0.3-1-0.7-1.5-1.8-1.1c-1.5,0.5-3.1,0.9-4.6,1.4c-2.8,0.9-2.8,0.3-1.9,3.6c8,27.4,16,54.7,24.1,82.1c0.3,1,0.6,2,0.9,3
	c0.2,0.5,0.5,0.8,1.1,0.6c2.3-0.7,4.6-1.4,6.9-2C859.1,567.9,859.3,567.5,859.1,566.6z"/>
<path fill="#CED8DC" d="M762.9,526.6c-1.5,0-3.4,0.3-5.3,0.8c-2.4,0.7-4.8,1.4-7.1,2.1c-0.7,0.2-1.3,0.5-2,0.7
	c0.5,0.6,1.3,0.6,1.9,0.9c12,4.4,18.5,16.7,15.6,29.1c-0.9,3.8-2.7,7.2-5.2,10.1c-0.2,0.2-0.5,0.4-0.2,0.7c0.1,0.1,0.5,0,0.7,0
	c2.6-0.8,5.2-1.5,7.8-2.3c11.7-3.3,16.8-15.2,15.3-24.1C782.7,534.6,773.6,526.6,762.9,526.6z"/>
<path fill="#FCE2D8" d="M709,487.4c0,0.2,0,0.4,0.1,0.6c0.7,5.3,2.3,10.5,4.2,15.4c1.7,4.5,7.3,6,11.5,3.6c3.4-2,4.8-5.7,3.6-9.8
	c-1.1-4-2.4-8-3.5-11.9c-0.2-0.7-0.4-1.4-0.5-2.1c-0.1-0.7,0.4-1.2,1-1.4c0.7-0.2,1.3,0.1,1.6,0.6c0.3,0.5,0.4,1,0.6,1.6
	c0.5,1.5,1,3,1.4,4.6c0.2,1,0.7,1.4,1.7,1.1c3.3-1,6.6-1.9,9.9-2.9c0.8-0.2,1-0.6,0.8-1.4c-0.5-1.4-0.8-2.8-1.3-4.1
	c-2.5-6-8-10.2-15.2-10.1C716.1,471.3,709.4,478.2,709,487.4z"/>
<path fill="#FCE2D8" d="M897.3,742c0,3.3,0,6.5,0,9.8c0,0.2,0,0.3,0,0.5c0.2,4.2,3.1,7.2,7.1,7.3c4.1,0.1,7.2-2.5,7.6-6.6
	c0.1-0.9,0.2-1.9,0.2-2.9c0-5.2,0.1-10.4,0-15.6c-0.2-5.6,1.2-10.6,5.3-14.6c0.1-0.1,0.1-0.1,0.2-0.2c0.4-0.5,0.4-0.8-0.3-1.1
	c-0.5-0.1-0.9-0.3-1.4-0.4c-9.3-2.4-18.4,4.3-18.6,14C897.2,735.4,897.3,738.7,897.3,742z"/>
<path fill="#FCE2D8" d="M879.4,742C879.4,742,879.4,742,879.4,742c0,3.5-0.1,7,0,10.5c0.1,3.7,3,6.7,6.3,7c3.9,0.4,7.2-1.7,8.2-5.4
	c0.3-1,0.3-2.1,0.3-3.1c0-6.1,0-12.3,0-18.4c0-4.6,1.5-8.6,4.6-12c0.3-0.3,0.6-0.6,0.8-0.9c0.4-0.4,0.4-0.8-0.2-1.1
	c-0.5-0.2-0.9-0.3-1.4-0.4c-9.3-2.5-18.5,4.5-18.7,14.2C879.3,735.6,879.4,738.8,879.4,742z"/>
<path fill="#CED8DC" d="M799.1,472.7c-0.5,0.2-1.1,0.3-1.6,0.5c-5.2,1.5-10.4,3-15.6,4.6c-6.4,1.9-12.9,3.8-19.3,5.7
	c-1.8,0.5-1.8,0.6-1.3,2.3c0.8,2.8,1.7,5.7,2.5,8.5c0.6,1.8,0.6,1.8,2.4,1.3c11.3-3.3,22.5-6.6,33.8-9.9c0.8-0.2,1.7-0.5,2.5-0.8
	c0.6-0.2,0.8-0.5,0.6-1.1c-1-3.4-2-6.9-3-10.3C800,473,799.8,472.6,799.1,472.7z"/>
<path fill="#FFFFFF" d="M534.3,742c0,4,0,8,0,12c0,1.9,0,1.9,1.8,1.9c4.7,0,9.4,0,14.1,0c1.7,0,1.7-0.1,1.7-1.8c0-8.1,0-16.1,0-24.2
	c0-1.8-0.1-1.8-1.9-1.8c-4.6,0-9.3,0-13.9,0c-1.8,0-1.8,0.1-1.8,1.9C534.3,734,534.3,738,534.3,742z"/>
<path fill="#FCE2D8" d="M712.2,526.7c3.5-0.1,6.1-1.8,7.6-4.9c1.4-2.9,0.8-6.5-1.4-8.9c-1.3-1.4-2.6-2.8-4.3-3.8
	c-0.9-0.5-1.7-1.2-2.3-2.1c-1.5-2.4-3.6-4.2-5.6-6.2c-3.4-3.3-8.3-3.3-11.6,0c-3.3,3.3-3.4,8.2-0.1,11.6c3.9,4,7.9,7.9,11.9,11.9
	C708,525.8,709.9,526.7,712.2,526.7z"/>
<path fill="#FFFFFF" d="M629.2,755.9c2.5,0,5,0,7.4,0c1.3,0,2.6,0,3.8,0c0.4,0,0.9,0,1-0.4c0.1-0.2-0.3-0.5-0.5-0.7
	c-0.4-0.4-0.8-0.8-1.2-1.2c-3.8-4.1-6.4-8.7-7-14.4c-0.1-1.3-0.1-2.5-0.2-3.8c0-0.3,0.1-0.7-0.3-0.8c-0.4-0.1-0.5,0.3-0.7,0.5
	c-0.9,1.1-1.7,2.3-2.6,3.5c-3.8,5.1-7.5,10.1-11.3,15.2c-0.4,0.5-1.3,1.1-0.9,1.8c0.4,0.7,1.3,0.3,2,0.3
	C622.4,755.9,625.8,755.9,629.2,755.9z"/>
<path fill="#FCE2D8" d="M700.6,535.3c3.1-0.2,5.7-1.7,7.2-4.7c0.4-0.8,0.6-1.6-0.6-2.1c-1.6-0.7-2.8-1.9-4-3.1
	c-3.3-3.3-6.5-6.6-9.8-9.8c-1.3-1.3-1.4-1.2-2.8-0.2c-3.9,2.8-4.7,8.4-1.5,12c1.9,2.1,4,4.1,6.1,6
	C696.7,534.7,698.5,535.3,700.6,535.3z"/>
<path fill="#FFFFFF" d="M997.9,627c0,0.6,0,1.3,0,1.9c0,4.2,0,8.3,0,12.5c0,0.3-0.1,0.7,0.3,0.8c0.4,0.1,0.5-0.3,0.6-0.6
	c0.9-2,1.9-4.1,2.8-6.1c3.4-7.5,6.9-14.9,10.3-22.4c0.7-1.5,0.5-1.6-1-1.6c-3.6,0.1-7.2,0.2-10.8,0.1c-2.1-0.1-2.1,0-2.2,2
	C997.9,618.1,997.9,622.6,997.9,627z"/>
<path fill="#CED8DC" d="M731.3,505.9c2.9-0.9,5.9-1.8,8.8-2.7c0.8-0.2,0.6-0.9,0.4-1.4c-0.9-3.2-1.9-6.4-2.8-9.7
	c-0.3-1.1-0.9-1.2-1.8-0.9c-1.3,0.4-2.6,0.8-3.9,1.2c-1.7,0.5-1.7,0.6-1.2,2.3c0.6,1.9,1.2,3.8,1,5.9c-0.1,1.6-0.5,3.1-1.2,4.6
	C730.4,505.7,730.6,505.9,731.3,505.9z"/>
<path fill="#CED8DC" d="M747.1,488c-2,0.6-4,1.2-6,1.8c-0.7,0.2-0.7,0.8-0.6,1.3c1,3.4,2,6.7,2.9,10.1c0.2,0.7,0.6,0.9,1.2,0.7
	c1.8-0.6,3.7-1.1,5.5-1.6c0.8-0.2,1-0.7,0.8-1.4c-1-3.4-2-6.7-3-10.1C747.9,488.3,747.8,487.8,747.1,488z"/>
<path fill="#CED8DC" d="M812.3,481.3c-0.1-0.4-0.2-0.9-0.3-1.3c-0.6-1.9-1.1-3.8-1.7-5.7c-0.5-1.4-0.3-3.5-1.6-4
	c-1.3-0.6-3,0.7-4.5,1c-1,0.2-1.3,0.7-1,1.7c0.7,2.1,1.2,4.3,1.9,6.4c1.7,5.3,0.2,4.6,6,3.1c0.3-0.1,0.6-0.2,0.9-0.3
	C812.3,482,812.4,481.8,812.3,481.3z"/>
<path fill="#FFFFFF" d="M935.3,755.9c0.6-0.1,1.7,0.4,2-0.4c0.2-0.5-0.9-1-1.3-1.5c-0.3-0.3-0.5-0.6-0.8-0.8c-0.7-0.6-1.1-2-2-1.7
	c-0.6,0.1-0.1,1.6-0.3,2.4c-0.4,1.9-0.3,1.9,1.6,2C934.7,755.9,934.9,755.9,935.3,755.9z"/>
<path fill="#151D38" d="M437.1,503.8c0,1.1,0.1,2.2,0,3.4c-0.1,1-0.7,1.6-1.8,1.5c-1-0.1-1.3-0.9-1.2-1.7c0.2-2.4,0.1-4.8-0.2-7.2
	c-3-20.9-27.3-31.4-44.5-19.1c-0.9,0.6-1.6,1.8-2.9,1.3c-1.4-0.6-1-2-1.2-3.1c-2.1-19.1-15.3-35.2-33.7-40.9
	c-27.6-8.5-56.2,8.8-61.7,37.2c-0.6,2.9-0.7,5.9-0.9,8.8c-0.1,0.9-0.5,1.5-1.5,1.5c-1,0-1.4-0.7-1.5-1.6c0-0.3,0-0.6,0-1
	c0.2-2,0.2-4,0.5-6c3.2-21.7,18.9-38.7,40.5-43.1c29-5.9,55.8,13.4,60.7,41.1c0.5,2.7,0.5,2.7,2.8,1.4c19-10.5,42.8,1,46.2,22.4
	C437.1,500.4,437.3,502.1,437.1,503.8z"/>
<path fill="#151D38" d="M516.1,339.9c22,0,38.9,12.4,44.5,30.2c0.2,0.6,0.4,1.2,0.5,1.8c0.2,0.9-0.2,1.6-1.1,1.8
	c-0.8,0.2-1.4-0.2-1.7-1c-0.2-0.6-0.4-1.2-0.6-1.8c-5.6-17.1-21.9-28.6-39.8-28.1c-20.1,0.6-36.8,16.2-38.9,36.3
	c-0.5,4.6-0.1,9.1,0.9,13.6c0.1,0.5,0.3,1.1,0.3,1.6c0,1.4-1.1,2-2.3,1.2c-0.6-0.4-1.1-0.9-1.7-1.4c-11.1-8.8-27.2-3.4-30.8,10.2
	c-0.8,2.9-0.9,5.8-0.2,8.8c0.1,0.5,0.3,1.1,0.3,1.6c0,0.7-0.5,1.2-1.2,1.3c-0.7,0.2-1.3-0.2-1.6-0.8c-0.6-1.3-0.7-2.6-0.9-4
	c-1.2-12.9,8.7-24.1,21.4-24.5c4-0.1,7.8,0.7,11.3,2.5c0.5,0.3,1.1,0.8,1.5,0.5c0.4-0.3,0.1-1,0-1.6c-1.3-11.1,1.3-21.3,7.9-30.4
	C492.5,346,504.5,340.2,516.1,339.9z"/>
<path fill="#151D38" d="M604.1,426.5c0.1,10.1,5.5,20.2,18.8,22c1.7,0.2,3.5,0.4,5.2,0.5c1.2,0,2.1,0.8,1.9,1.6
	c-0.2,1.1-1,1.3-2,1.3c-2.3,0.1-4.6,0.3-6.9,0.8c-9.6,2-15.7,8.7-16.9,18.4c-0.2,1.3-0.3,2.5-0.2,3.8c0,0.5-0.1,1-0.1,1.4
	c-0.1,0.9-0.4,1.6-1.4,1.6c-1.1,0-1.6-0.7-1.6-1.7c0-2.1,0-4.1-0.4-6.2c-1.9-10.2-8.9-16.7-19.2-17.7c-1.5-0.2-3-0.3-4.5-0.4
	c-1-0.1-1.8-0.3-1.8-1.5c0-1.1,0.8-1.5,1.8-1.5c2.6,0,5.3-0.3,7.8-0.9c8.9-2.2,14-7.9,15.8-16.7c0.4-1.7,0.6-3.5,0.5-5.2
	c0-0.6,0-1.3,0.1-1.9c0.1-0.8,0.7-1.2,1.5-1.2c0.7,0,1.2,0.4,1.3,1.2C604,424.9,604,425.7,604.1,426.5z M602.5,464.7
	c0.1,0,0.1,0,0.2-0.1c0.1-0.2,0.2-0.4,0.3-0.6c2.5-6.2,6.9-10.5,13-13c0.3-0.1,0.9,0,0.8-0.6c0-0.3-0.4-0.4-0.7-0.5
	c-6.2-2.4-10.6-6.7-13.1-12.9c-0.1-0.3-0.3-0.7-0.5-0.7c-0.4,0-0.6,0.5-0.7,0.9c-2.5,6.1-6.8,10.3-12.9,12.8
	c-0.4,0.1-0.8,0.3-0.8,0.7c0,0.2,0.5,0.3,0.8,0.4c6.1,2.4,10.4,6.7,12.9,12.8c0.1,0.2,0.2,0.5,0.3,0.6
	C602.2,464.5,602.4,464.6,602.5,464.7z"/>
<path fill="#151D38" d="M642.2,307.9c1,0.1,1.4,0.8,1.4,1.8c0,1.9,0.1,3.8,0.4,5.7c1.8,10.6,9,17.3,19.8,18.2
	c1.4,0.1,2.7,0.2,4.1,0.3c1,0.1,1.8,0.3,1.7,1.5c-0.1,1.2-0.9,1.4-1.8,1.5c-2,0-4,0.2-6,0.5c-9.6,1.6-16.1,8-17.7,17.6
	c-0.3,1.7-0.5,3.5-0.5,5.2c0,0.4,0,0.8,0,1.2c-0.1,0.9-0.7,1.5-1.6,1.4c-0.8-0.1-1.3-0.6-1.3-1.4c0-2-0.1-4-0.4-6
	c-1.2-6.8-4.4-12.3-10.6-15.7c-3.7-2-7.8-2.8-12-2.9c-0.6,0-1.3,0-1.9-0.1c-0.8-0.2-1.2-0.8-1.1-1.6c0.1-0.7,0.5-1.1,1.2-1.2
	c2.3-0.3,4.6-0.3,6.9-0.7c9.9-1.9,16.1-8.4,17.5-18.4c0.2-1.7,0.4-3.5,0.3-5.3C640.6,308.7,641.1,308.1,642.2,307.9z M656.9,335.4
	c-0.5-0.2-0.8-0.4-1.2-0.6c-6.1-2.4-10.4-6.6-12.9-12.7c-0.1-0.4-0.2-0.9-0.6-0.9c-0.5,0-0.5,0.6-0.6,0.9
	c-2.5,6.1-6.8,10.3-12.9,12.7c-0.4,0.1-0.7,0.4-1,0.6c0.3,0.2,0.6,0.5,1,0.6c6.1,2.4,10.4,6.6,12.9,12.7c0.1,0.3,0.1,0.9,0.6,0.9
	c0.5,0,0.5-0.5,0.7-0.9c1.1-2.6,2.5-5,4.5-7c2.4-2.5,5.2-4.4,8.5-5.7C656,335.9,656.4,335.7,656.9,335.4z"/>
<path fill="#151D38" d="M724.5,392.3c0.8,0.1,1.2,0.6,1.3,1.4c0.1,1,0.2,1.9,0.3,2.9c0.9,6.7,5.1,10.6,11.8,11c0.6,0,1.3,0,1.9,0.1
	c0.8,0.1,1.3,0.6,1.3,1.4c0,0.9-0.5,1.4-1.3,1.4c-1.4,0.1-2.7,0.1-4,0.4c-5.2,1-8.7,4.5-9.5,9.8c-0.2,1.2-0.3,2.4-0.4,3.6
	c-0.1,0.9-0.4,1.6-1.4,1.6c-1.1,0-1.5-0.7-1.6-1.7c-0.1-1-0.1-1.9-0.2-2.9c-1.1-6.6-5.4-10.4-12.1-10.7c-0.6,0-1.3,0-1.9-0.1
	c-0.7-0.1-1.1-0.7-1.1-1.4c0-0.7,0.4-1.2,1.1-1.4c0.5-0.1,1-0.1,1.4-0.1c7.7-0.3,12.3-4.8,12.7-12.5c0-0.6,0-1.1,0.1-1.7
	C723.1,392.7,723.6,392.3,724.5,392.3z M730.9,409.3c0-0.4-0.3-0.6-0.5-0.7c-2.4-1.3-4.2-3.2-5.5-5.6c-0.4-0.7-0.7-0.5-1,0
	c-1.3,2.4-3.1,4.2-5.5,5.6c-1,0.6-0.5,0.9,0.2,1.3c2.2,1.3,3.9,3,5.1,5.2c0.4,0.8,0.8,0.9,1.3,0.1c1.3-2.3,3.1-4.1,5.3-5.4
	C730.5,409.6,730.7,409.4,730.9,409.3z"/>
<path fill="#151D38" d="M729.6,774.6c97.8,0,195.5,0,293.3,0c1,0,1.9,0,2.9,0.1c0.7,0,1.2,0.4,1.3,1.2c0.1,0.8-0.3,1.4-1.1,1.6
	c-0.4,0.1-0.8,0.1-1.2,0.1c-0.6,0-1.3,0-1.9,0c-195.5,0-391,0-586.5,0c-1,0-1.9,0-2.9-0.1c-0.9-0.1-1.5-0.6-1.4-1.6
	c0.1-0.9,0.7-1.2,1.5-1.3c0.9,0,1.8,0,2.6,0C533.9,774.6,631.8,774.6,729.6,774.6z"/>
<path fill="#151D38" d="M931.7,405.2c-13.8-0.2-25.8-5.3-36.1-14.4c-1.9-1.7-3.6-3.4-5.2-5.3c-1.5-1.8-1.2-2.7,1.1-3.3
	c13.3-3.7,26.6-7.3,40-10.9c16.3-4.4,32.5-8.8,48.8-13.2c3.2-0.9,3.9-0.3,3.2,2.8c-3.9,16.8-12.6,30.1-28,38.4
	C948,403.3,940.1,405.1,931.7,405.2z"/>
<path fill="#FFFFFF" d="M933.2,402.1c6.8-0.3,13.3-1.8,19.4-4.9c14.1-7.1,22.6-18.7,27-33.5c0.2-0.7,0.9-1.6,0.3-2.2
	c-0.5-0.4-1.5,0.1-2.2,0.3c-21.7,5.9-43.3,11.7-65,17.6c-5.8,1.6-11.6,3.1-17.3,4.7c-1.4,0.4-1.4,0.6-0.4,1.6
	c3.7,3.7,7.7,7,12.2,9.6C915.2,400.1,923.9,402.3,933.2,402.1z"/>
<path fill="#151D38" d="M1004.5,367c-0.1-7.8,5.8-16.7,16.8-16.7c10.7,0,16.9,8.6,16.9,16.9c0,9.3-7.6,16.7-16.8,16.8
	C1012,383.9,1004.5,376.4,1004.5,367z"/>
<path fill="#E8384A" d="M1021.2,380.9c6.4,0.2,13.9-4.8,13.9-13.7c0-8.5-6.8-13.9-13.8-13.9c-7.5,0-13.8,6.2-13.8,13.7
	C1007.4,374.5,1013.6,380.8,1021.2,380.9z"/>
<path fill="#151D38" d="M867,392.1c9.1,0,16.8,6.9,17,16.9c0.2,9.2-7.6,16.8-16.8,16.8c-9.4,0-16.9-7.5-16.9-16.9
	C850.3,399.7,857.7,392.2,867,392.1z"/>
<path fill="#E8384A" d="M853.3,408.9c0,7.6,6.2,13.9,13.8,13.9c7.5,0,13.9-6.3,13.9-13.9c0-7.5-6.2-13.7-13.7-13.8
	C859.6,395,853.3,401.2,853.3,408.9z"/>
<path fill="#151D38" d="M987.7,344.9c0-4.6,3.7-8.2,8.2-8.2c4.6,0,8.2,3.7,8.1,8.3c0,4.6-3.7,8.3-8.2,8.2
	C991.3,353.1,987.7,349.5,987.7,344.9z"/>
<path fill="#151D38" d="M874.1,369.8c4.5,0.1,8.2,3.8,8.1,8.4c-0.1,4.5-3.9,8.2-8.4,8.1c-4.6-0.1-8.1-3.7-8-8.4
	C865.8,373.3,869.5,369.8,874.1,369.8z"/>
<path fill="#151D38" d="M1095.4,373.9c0,9.8-8.7,17.2-18.4,15.5c-0.4-0.1-0.8-0.1-1.2-0.3c-0.7-0.3-1.1-0.9-0.9-1.7
	c0.2-0.7,0.7-1,1.4-1c0.6,0,1.3,0.1,1.9,0.2c7.7,0.6,14.1-5,14.2-12.5c0.1-7.7-6.1-13.6-13.9-13.1c-0.1,0-0.2,0-0.2,0
	c-1.8,0.1-2.5-0.3-2.6-1.3c-0.1-1,0.7-1.6,2.4-1.7c9.4-0.8,16.6,6.2,17.3,14.3C1095.4,372.7,1095.4,373.3,1095.4,373.9z"/>
<path fill="#151D38" d="M926.8,363.2c-0.1,0.7-0.5,1.2-1.3,1.2c-0.4,0-0.8-0.1-1.2-0.2c-3.3-1.2-6.6-2.3-9.9-3.5
	c-1.9-0.7-2.2-1.8-0.7-3.2c2.6-2.5,5.3-4.9,7.9-7.3c0.7-0.7,1.5-1,2.3-0.2c0.7,0.6,0.7,1.5-0.3,2.5c-1.4,1.4-2.9,2.7-4.4,4.1
	c-2.1,1.9-2.1,1.9,0.5,2.9c1.9,0.7,3.8,1.3,5.6,2C926.2,361.6,926.9,362,926.8,363.2z"/>
<path fill="#151D38" d="M852,373.8c0.3-5.7,3.3-10.3,9-13.1c0.5-0.2,1-0.4,1.6-0.5c0.7-0.1,1.2,0.3,1.6,0.9c0.4,0.7,0.1,1.3-0.4,1.7
	c-0.4,0.3-1,0.5-1.5,0.8c-5.4,2.6-8,7.8-6.8,13.7c0.1,0.5,0.3,0.9,0.3,1.4c0.1,0.8-0.3,1.4-1.1,1.6c-0.8,0.2-1.4-0.1-1.7-0.9
	C852.2,377.8,852,376.1,852,373.8z"/>
<path fill="#151D38" d="M998.6,326.5c-0.5,0.1-1.3,0.2-2,0.2c-0.7,0-1.2-0.4-1.3-1.2c-0.1-0.7,0.1-1.3,0.8-1.6
	c0.4-0.2,0.8-0.3,1.1-0.3c7.3-1.1,14.4,3.3,16.6,10.4c0.2,0.5,0.3,1.1,0.3,1.6c0.1,0.7-0.2,1.3-0.9,1.5c-0.8,0.2-1.4,0-1.8-0.8
	c-0.2-0.5-0.4-1.1-0.5-1.6C1009.1,329.5,1004.4,326.3,998.6,326.5z"/>
<path fill="#151D38" d="M987.2,620.7c0,2.8-2.4,5.2-5.2,5.1c-2.8,0-5-2.3-5-5.1c0-2.8,2.3-5.2,5.2-5.2
	C984.9,615.6,987.2,618,987.2,620.7z"/>
<path fill="#FFFFFF" d="M982,622.7c1.1,0,2-0.8,2.1-1.8c0.1-1.2-0.8-2.2-2-2.2c-1.2,0-2.1,0.9-2.1,2.1
	C980.1,621.9,981,622.7,982,622.7z"/>
<path fill="#151D38" d="M982,644.8c-2.8,0-5-2.2-5-5c0-2.9,2.2-5.1,5.1-5.1c2.8,0,5,2.3,5.1,5C987.3,642.5,984.9,644.8,982,644.8z"
	/>
<path fill="#FFFFFF" d="M984.1,639.7c0-1-0.9-2-1.9-2.1c-1.1-0.1-2.2,0.9-2.2,2c0,1,0.9,2,1.9,2.1
	C983,641.9,984.1,640.9,984.1,639.7z"/>
<path fill="#151D38" d="M521.8,550.9c0,3.6-2.9,6.4-6.4,6.3c-3.6-0.1-6.3-2.9-6.2-6.5c0.1-3.5,2.9-6.2,6.3-6.2
	C519,544.5,521.8,547.3,521.8,550.9z"/>
<path fill="#151D38" d="M450.3,607.7c-0.1,2.9-2.3,5-5.3,5c-2.9,0-5.3-2.5-5.2-5.4c0.1-2.9,2.6-5.3,5.5-5.2
	C448.2,602.3,450.4,604.7,450.3,607.7z"/>
<path fill="#151D38" d="M823.2,562.7c0-4.8,3.6-8.6,8.4-8.6c4.8,0,8.5,3.7,8.5,8.5c0,4.7-3.8,8.5-8.5,8.5
	C826.8,571.1,823.2,567.4,823.2,562.7z"/>
<path fill="#FFFFFF" d="M831.6,568c3,0,5.5-2.5,5.5-5.5c0-3-2.5-5.4-5.6-5.3c-2.9,0-5.3,2.4-5.4,5.3
	C826.1,565.5,828.6,568.1,831.6,568z"/>
<path fill="#151D38" d="M799,496.9c3.1,0,5.4,2.4,5.4,5.5c0,2.9-2.4,5.3-5.4,5.3c-3,0-5.5-2.5-5.4-5.5
	C793.7,499.2,796,496.9,799,496.9z"/>
<path fill="#E8384A" d="M801.4,502.3c0-1.3-1.2-2.4-2.5-2.4c-1.2,0.1-2.2,1.1-2.2,2.4c0,1.2,1,2.3,2.2,2.4
	C800.2,504.7,801.4,503.5,801.4,502.3z"/>
<path fill="#151D38" d="M812.8,492.9c3,0.1,5.3,2.4,5.3,5.4c0,3.1-2.4,5.4-5.5,5.4c-3,0-5.3-2.4-5.3-5.4
	C807.3,495.2,809.7,492.8,812.8,492.9z"/>
<path fill="#FFFFFF" d="M812.7,495.9c-1.3,0-2.5,1.2-2.4,2.5c0,1.2,1.2,2.3,2.4,2.3c1.3,0,2.4-1.1,2.4-2.5
	C815,497,814,495.9,812.7,495.9z"/>
<path fill="#151D38" d="M664.5,570c-0.1-12.7,9.5-24.2,23.8-24.4c14.2-0.2,24.1,11,24.5,23.5c0.3,12.4-9,24.1-22.9,24.7
	C675.9,594.4,665,584,664.5,570z"/>
<path fill="#FFFFFF" d="M687.4,548.6c-7.2,0.3-13.5,4.1-17.5,11.6c-2.3,4.3-2.9,8.9-1.8,13.7c0.1,0.3-0.1,0.9,0.5,0.9
	c0.5,0,0.5-0.5,0.7-0.8c0.1-0.3,0.3-0.6,0.4-0.9c2.2-4.9,4.5-9.7,6.7-14.6c0.2-0.5,0.4-1,0.7-1.5c0.4-0.7,1-1,1.8-0.8
	c1,0.3,1.1,1.1,0.9,2c-0.2,0.7-0.5,1.3-0.8,2c-2.7,5.9-5.4,11.8-8.1,17.6c-0.6,1.3-0.7,2.4,0.3,3.5c0.2,0.2,0.3,0.4,0.4,0.6
	c1.4,1.9,1.5,1.9,2.5-0.2c1.5-3.3,3-6.5,4.5-9.8c0.3-0.6,0.5-1.2,0.9-1.7c0.4-0.6,1.1-1,1.9-0.6c0.7,0.4,1,1.1,0.8,1.8
	c-0.2,0.6-0.5,1.2-0.7,1.8c-1.7,3.7-3.4,7.4-5.1,11.1c-0.8,1.8-0.8,1.9,0.9,3c7.2,4.5,14.6,4.9,22,0.7c11.5-6.4,14.6-21.9,5.3-32.4
	c-1.3-1.4-1.4-1.4-2.2,0.3c-2.6,5.7-5.3,11.5-7.9,17.2c-0.3,0.7-0.6,1.3-1,1.9c-0.5,0.7-1.2,0.8-1.9,0.5c-0.7-0.3-0.9-0.9-0.7-1.6
	c0.2-0.6,0.4-1.2,0.7-1.8c2.8-6.1,5.6-12.2,8.4-18.3c0.8-1.7,0.7-1.7-0.8-2.6C695.8,549.5,692.4,548.6,687.4,548.6z"/>
</svg>
